<?xml version="1.0" ?>
<!-- Uploaded to: SVG Repo, www.svgrepo.com, Generator: SVG Repo Mixer Tools -->
<svg width="800px" height="800px" viewBox="0 0 64 64" xmlns="http://www.w3.org/2000/svg">
<g id="a"/>
<g id="b"/>
<g id="c"/>
<g id="d"/>
<g id="e"/>
<g id="f"/>
<g id="g"/>
<g id="h"/>
<g id="i"/>
<g id="j"/>
<g id="k"/>
<g id="l"/>
<g id="m"/>
<g id="n"/>
<g id="o"/>
<g id="p"/>
<g id="q"/>
<g id="r"/>
<g id="s"/>
<g id="t"/>
<g id="u"/>
<g id="v"/>
<g id="w"/>
<g id="x">
<path d="M17.58,40.17l-1.25,.34c-2.64,.71-5.69-.78-6.04-3.49l-.75-5.83,7.46-3.53s4.75,9.94,.58,12.51Z" fill="#e4ecf0" fill-rule="evenodd"/>
<path d="M17.01,27.66l-7.46,3.53,.6,4.7c1.1,.55,2.32,.81,3.57,.73l1.09,4.05c.51,.02,1.03-.04,1.53-.17l1.25-.34c4.18-2.57-.58-12.51-.58-12.51Z" fill="#d9e3e9" fill-rule="evenodd"/>
<polygon fill="#d9e3e9" fill-rule="evenodd" points="35.37 47.08 35.37 38.91 43.95 36.27 43.95 42.78 35.37 47.08"/>
<path d="M54.71,51.37h-15.05c-2.38,0-4.29-1.91-4.29-4.29s1.91-4.29,4.29-4.29h10.76l4.29,8.58Z" fill="#e4ecf0" fill-rule="evenodd"/>
<path d="M46.57,42.78v4.29c0,2.38,1.91,4.29,4.29,4.29,1.25,0,2.37-.53,3.16-1.38l-3.6-7.2h-3.85Z" fill="#d9e3e9" fill-rule="evenodd"/>
<path d="M16.11,34.69l1.55,5.79c.44,1.64,2.11,2.61,3.76,2.17l21.27-5.7c1.64-.44,2.61-2.11,2.17-3.76l-1.51-5.64-6.48-3.43-20.75,10.56Z" fill="#f0f3f5" fill-rule="evenodd"/>
<path d="M59,47.08c0,2.38-1.91,4.29-4.29,4.29s-4.29-1.91-4.29-4.29v-6.92c0-2.38,1.91-4.29,4.29-4.29h2.36c1.06,0,1.93,.86,1.93,1.93v9.29Z" fill="#f0f3f5" fill-rule="evenodd"/>
<path d="M54.71,35.86c-.21,0-.41,.02-.61,.04,.87,.19,1.52,.96,1.52,1.89v9.28c0,1.78-1.07,3.3-2.61,3.95,.52,.22,1.09,.34,1.69,.34,2.38,0,4.29-1.92,4.29-4.29v-9.28c0-1.07-.86-1.93-1.93-1.93h-2.36Z" fill="#e4ecf0" fill-rule="evenodd"/>
<path d="M7.11,21.38L39.38,12.73c1.6-.43,3.24,.52,3.67,2.12l2.42,9.03c.43,1.6-.52,3.24-2.12,3.67l-25.83,6.92c-2.79,.75-5.76-.29-7.48-2.61l-4.48-6.04c-1.2-1.61-.39-3.93,1.55-4.45Z" fill="#8996a8" fill-rule="evenodd"/>
<path d="M40.27,12.63c-.29-.01-.6,.02-.9,.1l-3.19,.85c1.6-.42,3.23,.53,3.66,2.12l2.42,9.03c.43,1.59-.51,3.23-2.1,3.66l3.19-.85c1.6-.43,2.55-2.07,2.12-3.67l-2.42-9.03c-.35-1.3-1.5-2.17-2.77-2.22Z" fill="#7a8594" fill-rule="evenodd"/>
<path d="M40.16,28.41l1.51,5.64c.44,1.64-.53,3.31-2.17,3.75l3.19-.85c1.64-.44,2.61-2.11,2.17-3.75l-1.51-5.64-3.19,.85Z" fill="#e4ecf0" fill-rule="evenodd"/>
<path d="M57.07,34.86h-2.36c-2.92,0-5.29,2.37-5.29,5.29v1.63h-4.47v-5.22c.16-.18,.35-.33,.47-.54,.54-.94,.69-2.04,.4-3.09l-1.3-4.87c1.53-.88,2.39-2.65,1.91-4.44l-2.42-9.03c-.28-1.03-.94-1.89-1.86-2.43-.92-.53-2-.67-3.03-.4L6.85,20.41c-1.23,.33-2.22,1.25-2.64,2.45s-.22,2.54,.54,3.56l3.82,5.16,.72,5.56c.18,1.42,.97,2.66,2.23,3.5,1.01,.68,2.23,1.03,3.46,1.03,.54,0,1.08-.07,1.61-.21l.4-.11c.67,1.44,2.07,2.39,3.64,2.39,.35,0,.7-.04,1.05-.14l12.69-3.4v6.86c0,2.92,2.37,5.29,5.29,5.29h15.05c2.92,0,5.29-2.37,5.29-5.29v-9.29c0-1.61-1.31-2.93-2.93-2.93ZM6.1,23.52c.21-.59,.67-1.02,1.27-1.18L39.64,13.7c.51-.14,1.05-.07,1.51,.2,.46,.27,.79,.7,.93,1.21l2.42,9.03c.28,1.06-.35,2.16-1.41,2.45l-25.83,6.92c-2.41,.65-4.93-.23-6.41-2.24l-4.48-6.04c-.37-.5-.47-1.12-.26-1.71Zm6.53,15.47c-.54-.36-1.22-1.02-1.36-2.1l-.36-2.79c1.29,.96,2.82,1.51,4.42,1.58l1.01,3.78-.29,.08c-1.15,.31-2.46,.1-3.43-.55Zm8.52,2.7c-1.1,.29-2.24-.36-2.53-1.46l-1.27-4.73c.14-.03,.27-.02,.41-.05l24.87-6.66,1.25,4.67c.14,.54,.07,1.09-.2,1.57-.27,.48-.72,.82-1.26,.96l-21.27,5.7Zm21.79-3.77v3.87h-3.29c-1.25,0-2.38,.45-3.29,1.18v-3.29l6.58-1.76Zm-6.58,9.16c0-1.81,1.48-3.29,3.29-3.29h9.76v3.29c0,1.25,.45,2.38,1.18,3.29h-10.94c-1.81,0-3.29-1.48-3.29-3.29Zm21.63,0c0,1.81-1.48,3.29-3.29,3.29s-3.29-1.48-3.29-3.29v-6.92c0-1.81,1.48-3.29,3.29-3.29h2.36c.51,0,.93,.42,.93,.93v9.29Z"/>
<path d="M54.71,44.95c-.55,0-1,.45-1,1v1.12c0,.55,.45,1,1,1s1-.45,1-1v-1.12c0-.55-.45-1-1-1Z"/>
<path d="M40.82,46.08h-1.12c-.55,0-1,.45-1,1s.45,1,1,1h1.12c.55,0,1-.45,1-1s-.45-1-1-1Z"/>
<path d="M30.72,20.36c.1-.17,.15-.36,.15-.55,0-.39-.21-.76-.55-.95-.17-.1-.36-.15-.55-.15-.39,0-.76,.21-.95,.55-.1,.17-.15,.36-.15,.55,0,.39,.21,.76,.55,.95,.52,.3,1.2,.12,1.5-.4Z"/>
<path d="M34.18,19.73c.39,0,.76-.21,.95-.55,.1-.17,.15-.36,.15-.55,0-.39-.21-.76-.55-.95-.17-.1-.36-.15-.55-.15-.39,0-.76,.21-.95,.55-.1,.17-.15,.36-.15,.55,0,.39,.21,.76,.55,.95,.17,.1,.36,.15,.55,.15Z"/>
<path d="M38.6,18.55c.39,0,.76-.21,.95-.55,.1-.17,.15-.36,.15-.55,0-.39-.21-.76-.55-.95-.17-.1-.36-.15-.55-.15-.39,0-.76,.21-.95,.55-.3,.52-.12,1.2,.4,1.5,.17,.1,.36,.15,.55,.15Z"/>
</g>
<g id="y"/>
<g id="a`"/>
<g id="aa"/>
<g id="ab"/>
<g id="ac"/>
<g id="ad"/>
<g id="ae"/>
<g id="af"/>
<g id="ag"/>
<g id="ah"/>
<g id="ai"/>
<g id="aj"/>
<g id="ak"/>
<g id="al"/>
<g id="am"/>
<g id="an"/>
<g id="ao"/>
<g id="ap"/>
<g id="aq"/>
<g id="ar"/>
<g id="as"/>
<g id="at"/>
<g id="au"/>
<g id="av"/>
<g id="aw"/>
<g id="ax"/>
</svg>